<svg width="25" height="25" viewBox="0 0 25 25" fill="none" xmlns="http://www.w3.org/2000/svg">
<g id="widgets">
<path id="Vector" d="M16.0718 5.25476L18.9089 8.07768L16.0859 10.9147L13.2489 8.09181L16.0718 5.25476ZM8.41303 5.75388L8.42301 9.75386L4.42303 9.76385L4.41304 5.76386L8.41303 5.75388ZM18.438 15.7289L18.4479 19.7289L14.448 19.7389L14.438 15.7389L18.438 15.7289ZM8.43799 15.7538L8.44797 19.7538L4.44799 19.7638L4.438 15.7638L8.43799 15.7538ZM16.0647 2.42477L10.4189 8.08888L16.093 13.7347L21.7388 8.06062L16.0647 2.42477ZM10.408 3.74889L2.40806 3.76886L2.42802 11.7688L10.428 11.7489L10.408 3.74889ZM20.433 13.7239L12.433 13.7439L12.453 21.7438L20.4529 21.7239L20.433 13.7239ZM10.433 13.7489L2.43302 13.7688L2.45299 21.7688L10.453 21.7488L10.433 13.7489Z" fill="#0D0F12"/>
</g>
</svg>
